<?xml version="1.0" encoding="UTF-8"?>
<svg xmlns="http://www.w3.org/2000/svg" viewBox="775 5 550 280">
  <defs>
    <style>
      .cls-1 {
        fill: #e83d44;
      }

      .cls-1, .cls-2, .cls-3, .cls-4, .cls-5, .cls-6, .cls-7, .cls-8, .cls-9, .cls-10, .cls-11, .cls-12, .cls-13, .cls-14, .cls-15, .cls-16, .cls-17, .cls-18 {
        stroke-width: 0px;
      }

      .cls-2 {
        fill: #eb5955;
      }

      .cls-3 {
        fill: #ea5351;
      }

      .cls-4 {
        fill: #e9494b;
      }

      .cls-5 {
        fill: #e94a4b;
      }

      .cls-6 {
        fill: #e83c43;
      }

      .cls-7 {
        fill: none;
      }

      .cls-8 {
        fill: #e94b4b;
      }

      .cls-9 {
        fill: #ea5653;
      }

      .cls-10 {
        fill: #e9494a;
      }

      .cls-11 {
        fill: #e94749;
      }

      .cls-12 {
        fill: #eb5754;
      }

      .cls-13 {
        fill: #e83e44;
      }

      .cls-14 {
        fill: #fffdfc;
      }

      .cls-15 {
        fill: #ea4e4d;
      }

      .cls-16 {
        fill: #e94b4c;
      }

      .cls-17 {
        fill: #e9484a;
      }

      .cls-18 {
        fill: #ea5250;
      }
    </style>
  </defs>
  <g>
    <path class="cls-3" d="M814.92,9.01c3.02-2.04,2.3-5.96.08-8.24-1.1-1.01-2.94-.72-4.57-.76-1.08,0-2.17.27-2.98,1.01-6.04,5.26,1.55,12.43,7.31,8.12l.17-.13Z"/>
    <path class="cls-6" d="M923.42,160.01c-5.81-4.56-12.48-7.52-19.31-10.17-5.64-2.25-11.63-4.18-16.28-8.1-8.26-6.65-10.68-20.32-3.35-28.48,4.18-5.02,13.15-6.16,17.67-1.11,2.8,2.96,4.39,8.83,2.22,12.31-.52.84-1.25,1.49-2.12,1.96-2.35,1.32-6.38,1.39-8.69,2.21-2.33.7-2.43,2.13-.16,3.17,3.23,1.55,9.92,1.68,14.71-.41,12.84-5.61,9.98-21-.88-27.45-13.94-8.41-32.74.85-36.36,16.42-3.4,12.59,1.47,25.96,13.59,31.58,9.69,4.82,20.99,5.59,29.3,12.89,9.88,8.19,15.45,23.25,9.53,35.18-6.73,13.17-32.12,18.22-43.93,8.12-7.49-6.23-8.63-18.14-1.44-24.55,2.24-2.1,5.92-3.09,8.57-4.07,5.61-2.35-1.64-4.73-5.24-4.39-2.62.1-5.14.98-7.33,2.43-10.67,7.24-12.52,23.8-4.11,33.52,8.03,9.7,21.44,12.57,33.52,12.29,35.08-1.57,48.7-41.78,20.24-63.24l-.16-.13Z"/>
    <path class="cls-6" d="M1116.55,191.22c25.79-8.19,37.47-45.06,18.91-65.45-4.7-5.25-10.69-8.88-17.55-11.3-4.01-1.43-7.86-2.29-11.62-4.07-8.99-3.83-12.61-16.46-6-23.98,4.96-6.01,11.88-2.03,17.38.54,4.21,2.14,8.42.94,8.82-4.16-.04-2.99-2.65-5.09-4.85-6.74-7.09-5.26-17.14-4.78-24.65-.49-6.08,3.26-10.04,10.11-11.45,16.54-2.09,8.5,1.81,17.27,9.34,21.56,8.11,4.96,18.14,5.04,25.66,11.06,16.84,12.5,18.05,39,.73,52.85-8.94,7.25-24.3,3.79-30.68-4.06-5.26-6.37-8.54-14.86-3.7-22.44,2.43-4.23,7.04-6.9,11.89-6.13,5.55.51,13.66,5.38,9.21,11.64-2.77,3.69-8.43.63-12.26,2.34-3.16,1.97-1.05,5.61,2.05,6.2,8.27,2.62,16.47-2,17.5-10.73.91-8.44-8.66-15.78-16.59-15.47-5.78-.06-11.58,2.66-15.6,7.02-19.93,22.12,7.1,54.15,33.28,45.34l.18-.06Z"/>
    <path class="cls-6" d="M993.82,76.42c-14-8.24-36.89-6.78-43.5,10.03-1.32,2.32-1.81,6.61-4.27,7.64-1.71.44-3.17-1-5.07-2.45-1.71-1.35-3.54-2.63-5.84-3.26-4.24-1.17-5.8.58-2.83,3.9,13.66,14.65,18.41,34.42,18.55,54.12.27,9.55-.01,19.13.04,28.69.05,2.19.06,4.56,1.13,6.45.95,1.72,2.88,2.73,4.97,2.59,3.8-.18,6.14-3.63,7.06-7.05,4.16-17.35-1.21-35.32-5.91-51.99-4.74-14.36-9.06-27.16,1.48-40.31,6.87-9.02,20.93-7.42,28.73-.42,5.56,4.74,9.01,11.52,10.41,18.99,1.5,8.39-.06,16.68-4.33,22.24-7.89,9.75-17.52,6.56-20.31-5.6-1.28-5.88,2.15-11.38,7.03-14.51,4-2.42,6.35-6.89.7-8.71-3.02-.66-6.69,1.09-9.25,3.26-4.78,4-6.89,10.28-7.09,16.59-.82,11.35,9.05,22.53,20.52,21.93,28.61-4.06,31.66-49.32,7.96-62.02l-.18-.1Z"/>
    <path class="cls-6" d="M849.69,153.05c-11.45,3.35-23.61,7.32-32.85-2.19-8.81-9.36-12.15-25.97-9.19-38.49,3.41-15.74,24.56-19.77,33.21-5.83,6.42,10.69-5.08,24.82-16.68,21.62-8.4-2.49.83-12.92-4.9-15.55-5.05-.94-9.27,4.46-9.26,9.32.26,15.45,20.91,20.48,31.99,12.2,8.95-6.12,14.28-17.97,10.87-28.37-4.3-13.53-20.63-20.07-33.84-15.49-40.1,12.81-29.11,81.33,13.51,80.42,9.74.45,24.16-4.5,26.76-14.26.39-4.9-4.12-4.7-9.45-3.44l-.18.04Z"/>
    <path class="cls-8" d="M1318.81,191.99c.49-2.23-6.7-6.33-9.89-7.28-11.6-4.04-25.04-6.45-37.35-7.1-25.93-1.64-51.5,5.91-74.75,17.78-35.37,16.87-72,37.23-112.34,33.64-27.49-1.97-54.88-12.51-75.27-31.36-2.77-2.6-7.83-7.23-10.78-6.94-.78.02-1.47.42-1.76,1.17-1.05,6.5,8.23,13.55,13.35,17.26,120.1,80.38,186.73-50.05,296.59-18.56,1.95.56,3.91,1.14,5.87,1.63,3.3.73,5.65,1.14,6.3-.19l.02-.06Z"/>
    <path class="cls-8" d="M804.26,80.79c5.51-2.5,2.22-7.85.26-12.23-.77-1.93-2.22-4.01-3.32-5.68-.14-.19-.3-.47-.23-.61,12.27,5.72,14.22-1.91,15.21-12.67.15-.9.56-.6,1.09.07,5.56,7.94,9.02,9.75,17.72,3.82,2.7-1.83,2.69-2.07,2.28,1.32-.85,8.47.44,10.47,8.81,11.48.97.27,3.11-.18,2.9,1.3-1.75,5.73-7.51,10.81-.22,14.79,1.32.42,2.26-1.26,2.73-2.34,4.34-9.62,11.78-17.23,17.61-26.89,3.62-6.25-8.05.16-10.37,1.25-4.16,2.2-15.66,7.58-13.73-1.07,2.25-7.78,6.09-15.13,8.55-22.91-.44-3.62-4.95.4-6.51,2.05-17.05,16.99-23.21,19.98-30.51-5.5-.57-2.06-1.38-3.98-1.8-6.24-.29-2.57-2.05-4.09-4.56-2.73-1.38.84-1.65,2.53-1.75,4.04-.23,11.09-.17,20.71-.18,32.74,0,.44-.03,1.24-.32,1.38-.2.14-.51.05-.89-.16-8.81-5.57-15.75-11.42-27.71-13.16-.47-.07-1.33-.19-1.45.2,7.1,10.62,14.62,19.17,18.6,29.68.97,4.95-.1,11.52,7.62,8.15l.18-.09Z"/>
    <path class="cls-1" d="M1186.73,97.81c5.53.6,6.95,2.21,7.15,7.66.27,6.31.66,12.6,2.06,18.8,2.54,12.77,10.34,24.23,23.95,26.73,4.91,1.02,10.18.41,14.57-1.76,6.76-3.18,12.42-11.2,10.25-18.69-.76-2.2-3.18-4.09-5.55-3.77-3.8.74-3.24,6.16-5.31,9.14-3.45,6.1-12.52,7.72-18.43,4.97-9.54-5.45-9.24-28.65-9.16-38.67.3-5.15,4.67-6.47,9.53-7.1,4.95-.9,16.31-.91,18.15-6.15-.11-2.87-9.09-1.2-11.71-1.03-4.36.24-11.5,2.87-14.42-.05-1.69-2.25-.97-5.59-.73-8.23.65-6.06,1.67-12.06,1.58-18.1-.65-5.78-6.68-4.57-8.1.23-2.18,6.5-3.64,13.29-4.62,20.06-.27,1.84-.47,3.79-1.17,5.49-1.18,3.48-5.15,3.42-8.32,4.1-3.67.86-3.59,5.75.12,6.34l.18.04Z"/>
    <path class="cls-1" d="M1285.11,145.32c21.55.16,38.32-27.65,25.9-46.07-2.59-3.86-6.31-6.62-10.92-7.52-8.55-1.92-17.76,3.16-17.73,12.57.03,3.43,2.58,10.73,6.88,10.29,1.25-.18,2.59-1.09,2.61-2.45-.11-2.37-3.18-4.99-2.76-7.82.64-3.87,6.08-6.65,9.83-5.97,3.44.57,4.47,3.91,4.46,6.95.24,9.15-3.23,17.68-8.73,24.82-4.16,5.46-11.56,6.08-17.51,3.28-5.02-2.09-8.88-5.55-10.01-11.19-1.43-8.43.41-17.07,5.9-23.89,1.22-1.77,3.33-2.62,4.62-4.19.62-.87.31-2.17-.44-2.93-2.35-2.24-5.34.79-7.45,2.06-11.02,7.76-16.07,25.51-9.8,38.32,4.42,9.31,14.97,13.82,24.93,13.75h.21Z"/>
    <path class="cls-1" d="M1054.21,153.7c10.45-4.55,17.78-15.79,16.75-26.54-.99-12.5-12.33-20.18-23.8-14.81-2.89,1.59-8.04,3.32-7.57,7.13.24,1.34,1.32,2.7,2.45,2.9,2.54.2,4.36-2.33,6.62-3.18,7.01-3.48,11.51-2.08,12.31,5.84.86,9.9-8.89,18.71-18.65,17.42-7.04-.94-13.38-5.28-14.29-12.91-1.87-13.9,6.54-20.4,18.77-24.56,1.53-.66,4.7-1.62,5.11-2.54.12-2.37-5.67-2.39-8.92-1.84-6.56,1.01-14.82,4.38-19.24,9.1-8.4,9.96-8.38,25.47-.78,35.27,6.97,9.37,20.2,13.68,31.05,8.81l.18-.08Z"/>
    <path class="cls-13" d="M1174.48,135.28c-2.49.18-5.38.43-7.34-1.16-2.02-1.54-2.95-4.87-3.54-7.67-1.78-7.93-.58-15.62.05-23.51.01-3.13,1.04-7.03-.61-9.71-2.1-2.8-5.5-.07-6.49,2.44-4.32,9.01-4.56,21.43-3.46,32.08,1.75,13.56,11.02,21.06,21.88,18.3,2.36-.6,5.12-1.92,5.91-4.19,1.37-4.27-2.06-7.23-6.18-6.6h-.21Z"/>
    <path class="cls-17" d="M1161.03,60.71c1.44-1.01,2.67-2.8,2.39-4.59-.4-1.87-4.54-2.78-5.11-5.11-.61-2.39,2.21-4.07,4.31-4.26,4.05-.53,7.85,2.75,8.9,6.52.98,3.61-1.78,7.73-5.08,9.32-2.66,1.35-5.87,1.22-8.6,2.23-1.84.7-3.06,2.21-1.79,3.61,1.71,1.71,5.41,1.71,7.86,1.35,11.95-1.9,20.5-12.71,11.98-23.64-7.78-10.01-24.38-7.74-26.36,4.9-.51,5.89,5.1,13.22,11.36,9.76l.15-.1Z"/>
    <path class="cls-16" d="M1229.63,227.08c-5.93-4.25-1.97-7.94-3.8-13.27-2.11-5.03-11.24-3.48-16-1.96-9.32,4.03-1.55,17.34,1.15,23.94,1.12,2.56,4.56,4.04,5.34.41.39-2.07-1.23-4.88-.32-6.9.53-1.3,1.98-1.98,3.54-1.72,3.28.5,5.81,4.24,8.95,5.49,1.53.64,3.63-.03,3.69-1.89.08-1.63-1.18-2.89-2.4-3.97l-.15-.13ZM1221.34,217.88c-.31,3.32-4.38,5.07-7.39,4.73-2.36-.38-3.14-4.09-1.7-5.93,1.16-1.2,3.06-1.19,4.64-1.29,2.01-.06,4.49.04,4.45,2.31v.19Z"/>
    <path class="cls-2" d="M1093.08,277.6c-.41-1.48.77-2.72,1.68-4.14,2.41-4.27,9.23-8.57,8.95-12.95-1.47-6.7-10.14-4.86-15.15-3.58-2.03.48-3.95,1.2-4.55,2.1-1.46,3.02,5.8,2.41,7.45,2.75,4.37.69,1.48,4.23-.66,6.79-1.94,3-9.04,9.65-7.47,13.07,1.65,3.96,20.35,1.95,22.94-.46,1.06-1.08-.83-1.81-1.75-2.01-2.48-.6-5.04-.36-7.54-.37-1.89.01-3.45-.26-3.86-1.11l-.05-.1Z"/>
    <path class="cls-15" d="M1174.21,249.07c-1.26-2.39.27-4.66,2.57-5.7,1.28-.72,3.09-1.32,3.75-2.55.61-1.39-1.25-1.94-2.34-1.91-2.38-.1-4.96,1.63-6.88,1.29-1.87-.23-2.69-2.37-2.01-4.02,1.26-3.31,6.23-4.32,8.35-6.67,3.11-4.36-7.52-.55-9.1.06-4.51,1.51-7.11,4.38-6.87,8.82.27,6.96,4.11,15,10.16,18.4,3.63,1.94,7.52.49,10.88-1.52,1.75-1.07,3.63-2.42,5.3-3.93,2.51-2.25,2.8-4.37-.45-3.79-4.11.3-10.08,6.69-13.27,1.67l-.08-.16Z"/>
    <path class="cls-4" d="M1135.27,267.21c-.78-1.33.09-3.12.61-4.47,1.42-3.47,2.82-6.63,3.99-10.12,2.07-6.13-.38-8.3-6.49-6.66-3.65.98-7.28,1.76-10.57,3.36-1.83.81-3.45,3.2-.3,3.66,2.48.41,5.44-1.25,7.95-.49,2.62,1.2.99,4.15.06,6.64-1.08,2.74-2.2,5.47-3.17,8.25-2.45,6.52-.31,8.98,6.06,7.48,3.7-.86,7.42-1.74,10.89-3.28,1.9-.86,5.55-2.8,3.52-4.25-2.96-1.68-9.84,2.53-12.48,0l-.07-.1Z"/>
    <path class="cls-7" d="M1027.24,251.9c.39,2.86,4.23,4.42,6.79,3.53,1.15-.5,1.91-2.27,1.69-3.32-.33-1.04-1.49-1.69-2.29-2.53-.86-.7-1.54-1.64-2.53-2.06-1.8-.48-4,2.23-3.68,4.19l.02.19Z"/>
    <path class="cls-7" d="M1027.24,251.9c.39,2.86,4.23,4.42,6.79,3.53,1.15-.5,1.91-2.27,1.69-3.32-.33-1.04-1.49-1.69-2.29-2.53-.86-.7-1.54-1.64-2.53-2.06-1.8-.48-4,2.23-3.68,4.19l.02.19Z"/>
    <path class="cls-11" d="M1052.29,91.7c2.63,1.53,5.64-.35,7.14-2.64,4.43-6.35,8.94-12.56,12.92-19.23,3.69-6.74-6.25-7.43-8.93-2.63-3.52,5.49-6.62,11.34-9.8,17.04-1.03,2.26-4.64,5.3-1.5,7.36l.16.1Z"/>
    <path class="cls-12" d="M1259.2,225.41c.54,1.8,2.87,3.17,4.18,1.45,1.31-1.8,1.01-4.28.9-7.09-.24-3.97-.64-8.68-1.35-12.53-.48-2.9-1.81-8.35-4.68-4.22-2.28,3.6-.63,12.34.17,18.94.15,1.11.33,2.26.71,3.28l.07.18Z"/>
    <path class="cls-18" d="M1061.96,254.76c-2.11.27-3.08,2.92-3.64,4.77-1.33,5.51-2.99,11.05-3.71,16.69-.41,2.84,2.19,5.58,4.63,3.15.84-.87,1.26-2.15,1.6-3.34,1.19-4.84,2.11-9.78,3.07-14.7.39-2.09,1.06-6.24-1.81-6.57h-.14Z"/>
    <path class="cls-9" d="M860.62,23.09c3.38.18,6.08-3.05,4.98-6.31-.76-2.69-3.52-3.61-6.33-3.82-4.3-.59-7.36,2.1-6.18,6.33,1.1,2.93,4.47,3.69,7.32,3.81h.2Z"/>
    <path class="cls-5" d="M780.48,35.99c-.31-3.57-3.06-5.9-6.68-6.07-3.07-.3-6.57,1.3-6,4.88.33,3.8,3.59,5.48,7.25,5.78,2.92.39,5.82-.81,5.45-4.38l-.02-.21Z"/>
    <path class="cls-16" d="M878.28,50.03c7.87.26,5.4-12.26-1.29-11.95-8.5-.29-6.23,11.99,1.1,11.94h.19Z"/>
    <path class="cls-14" d="M814.26,111.31c-.76.43-1.58,1.03-2.4,1.82.81-.41,1.6-1.23,2.4-1.82Z"/>
    <path class="cls-17" d="M1033.93,242.27c-6.98-5.01-9.83,2.73-13.58,7.3-1.01,1.41-2,2.85-3.04,4.25-1.87,2.52-4.78,6.03-1.58,8.13,2.31.97,4.01-1.76,5.65-2.99,3.68-3.06,7.62,1.59,11.44,2.02,5.13,1.23,9.4-4.38,9.17-9.12-.4-4.42-4.66-6.99-7.89-9.48l-.17-.11ZM1031.76,255.63c-1.99-.36-4.18-1.43-4.5-3.63-.53-2.12,1.85-5.26,3.91-4.36,1.14.76,2.2,1.95,3.26,2.85.58.55,1.01.85,1.25,1.47.48,2.12-1.53,4.2-3.72,3.7l-.2-.03Z"/>
    <path class="cls-10" d="M1309.4,218.09c-1.46-6.66-3.47-24.48-12.06-11.71-3.74,5.15-15.82,23.65-9.93,22.89,4.25-2.16,9.75-8.55,15.06-5.24,2.03,1.38,3.05,4.56,4.97,5.31,1.21.55,2.6-.05,3.22-1.2,1.49-3.05-.66-6.73-1.2-9.85l-.05-.2ZM1302.28,218.33c-1.38.68-3.04-.28-3.63-1.61-1.35-2.61,1.01-5.45,2.86-8.69,1.13-1.91,1.33,2.92,1.76,3.52.75,2.3,1.59,5.22-.83,6.69l-.16.08Z"/>
  </g>
</svg>